<?xml version="1.0" encoding="UTF-8"?>
<svg id="Layer_1" xmlns="http://www.w3.org/2000/svg" version="1.1" viewBox="0 0 194.45 297.47">
  <!-- Generator: Adobe Illustrator 29.4.0, SVG Export Plug-In . SVG Version: 2.1.0 Build 152)  -->
  <path d="M156.12,25.87c7.39-.77,13.61,3.73,13.95,11.34,1.27.1,2.75.86,3.84,1.54,4.28,2.65,6.07,7.2,5.47,12.11,2.71,1.25,5.2,3.26,6.88,5.76,1.58,2.34,2.63,5.16,1.65,7.94-.24.69-1.14,1.8-.98,2.42,4.56,4.84,5.58,12.64-.86,16.36.87,3.08.84,7.05-1.78,9.28-.76.65-1.58.87-2.3,1.48.37,3,.62,6.7-1.76,8.99-1.48,1.42-3.67,1.13-4.3,1.65-.26.22-1.04,2.41-1.69,3.11-1.08,1.17-3.3,2.17-4.91,2.07-.81-.05-1.65-.67-2.32-.61-.45.04-1.89,1.53-3.11,1.84-3.6.92-5.33-.43-7.94-2.42-.25-.19-.29-.4-.73-.29.28,1.2-1.94,2.51-2.02,2.79-.17.58.89,1.64,1.2,2.24,1.31,2.51,2.19,5.29,1.95,8.16-.08.97-.95,3.45-.79,4.03.19.67,1.6,2.24,2.04,3.21.93,2.05,1.34,4.73,1.03,6.96-.16,1.17-1.37,3.5-1.37,4.14,0,.5,1.38,3.2,1.6,4.2.47,2.15.36,5.04-.52,7.07-.31.73-1.35,1.89-1.39,2.4-.07.81.81,3.43.88,4.64.19,3.31-1.36,7.05-3.73,9.34,1.54,3.65,2.25,7.82.24,11.44,3.5.92,6.31,4.36,6.41,8.01.02.86-.53,1.66-.26,2.55.09.3,1.37,1.68,1.74,2.33,1.63,2.87,1.51,5.07,0,7.95-.38.72-1.69,2.12-1.49,2.83,1.2.75,2.34,1.13,3.48,2.06,3.15,2.57,5.04,6.91,2.85,10.71-2.52,4.37-9.74,3.87-14.04,3.09-1.91,1.62-4,3.11-6.7,3.22-.52.02-1.01-.27-1.4-.23-.42.04-.89.53-1.34.66-3.97,1.11-10.19-.19-14.39-.73-3.24-.42-6.2-1.74-8.72-3.78h-19.91c.03,3.78-3.48,7.1-7.2,7.19-2.88.07-2.01.07-4.56.95s-6.42.87-8.79-.25c-.63-.3-1.38-1.14-2-1.22-1.96-.25-2.7,1.13-5.73-.06-2.54-.99-3.4-2.98-4.74-5.15-.85.22-1.54.79-2.37,1.07-5.15,1.71-17.31,1.9-22.26-.25-.77-.33-2.56-1.63-2.95-1.7-2.48-.43-6.16.53-9.01.29-2.19-.19-4.98-1.2-6.37-2.93-.48-.6-1.04-2.01-1.45-2.32-.51-.39-2.27-.48-3.28-1.08-3.04-1.81-3.79-5.63-2.98-8.88-3.25-2.07-4.34-5.96-2.78-9.5.3-.68,1.26-1.63,1.32-2.19.06-.63-.58-1.46-.74-2.16-.98-4.04-.22-8.19,3.33-10.66-.88-3.95.13-7.76,3.37-10.27.45-.35,1.85-.97,1.91-1.06.33-.49.17-1.38.34-1.93.55-1.85,2.2-4.11,3.73-5.28.55-.42,2.62-1.41,2.74-1.61.52-.85-.16-1.93-.13-2.74.13-3.87,1.4-8.17,4.06-11.07.74-.8,3.44-2.63,3.64-3.06s-.18-.84-.14-1.27c.3-3.18,1.17-6.49,3.18-9.04.48-.61,2.8-2.48,2.86-2.66.26-.77-.06-2.35.11-3.38.36-2.26,2.37-5.2,4.14-6.61.37-.3,1.23-.56,1.27-.62.21-.29-.05-3.76.62-4.47-3.5-.04-7.02-1.36-8.45-4.78-5.31,2.16-10.99-.65-12.62-6.12-.64-2.16-.41-4.17-.43-6.4-5.76-.46-8.14-6.86-6.54-11.93-6.66-4.69-5.53-13.24-.17-18.48-3.68-6.61.99-13.3,7.15-16.09.31-.88.04-1.82.17-2.74.69-4.93,4.3-9.33,9.25-10.37-.55-7.37,5.12-12.63,12.25-12.89.3-.2.35-1.52.55-2.07,1.68-4.81,6.61-7.64,11.6-7.44,1.31-3.71,4.29-6.96,8.17-7.96,2.34-.6,4.41-.49,6.78-.18,4.16-5.32,11.63-6.19,17.49-3.17,1.3-.46,2.25-1.41,3.53-1.98,5.01-2.26,10.45-1.38,14.53,2.25,1.42-.52,2.84-1.13,4.35-1.39,4.11-.71,8.22.32,11.32,3.16.42.39.83,1.3,1.19,1.42.82.28,3.05-.35,4.32-.25,3.76.29,8.16,2.65,9.89,6.09.45.89.55,1.86,1.13,2.65,5.88.96,9.94,4.77,10.96,10.7ZM177.67,91.08c.79-.83,3.26-.51,4.25-2.29,1.56-2.79-.85-5.72.02-7.83.53-1.28,2.05-1.36,3.07-2.16,2.39-1.87,1.41-5.33-.02-7.54-.75-1.15-3.21-3.13-3.33-4.25-.16-1.46,1.77-2.07,2.19-3.6.73-2.66-1.71-5.53-3.64-7.14-1.18-.98-4.46-2.5-5.08-3.34-.99-1.33-.03-2.34.11-3.65.4-3.73-2.06-6.66-5.42-7.9-1.28-.47-3.11-.44-3.87-1.65-.59-.94-.12-2.92-.41-4.25-.72-3.4-4.58-5.54-7.86-5.53-1.05,0-1.88.73-2.93.04-.65-.42-.75-1.3-1.15-1.75-.44-.5-1.36-.53-1.73-1.18-.75-1.34-.41-2.96-1.75-4.65-2.22-2.8-5.34-2.73-8.45-3.75-.64-1.3-.69-2.7-1.45-4.07-1.81-3.23-5.45-4.25-8.97-3.78-.7.1-1.32.55-2.06.58-1.87.07-1.83-1.13-2.76-2.19-2.31-2.64-5-3.48-8.5-2.98-1.76.25-2.97,1.41-4.51,1.9-1.97.63-2.15-.72-3.41-1.68-3.83-2.9-8.14-3.13-12.04-.13-.65.5-1.53,1.78-2.21,1.88-1.05.14-2.38-1.06-3.42-1.52-4.04-1.75-8.59-1.12-11.53,2.24-.88,1.01-.96,2.34-2.74,2.17-.54-.05-1.04-.43-1.55-.51-3.76-.59-7.26.23-9.24,3.7-.58,1.02-1.38,3.87-2.17,4.22-.86.39-2.54.06-3.6.17-4.25.48-7.43,3.7-7.01,8.12.18.29,1.74-.05,2.33,0,2.3.16,5.6,1.34,5.94,3.95.12.89-.16,2.07.08,2.83s1.27,1.14,1.11,2.65c-.19,1.78-3.15,3.38-2.88,4.34.57.82,1.56,1.14,2.31,1.79,1.81,1.56,2.79,3.56,2.9,5.96,1.55-.14,2.41-1.46,4-1.96.9-.28,3.36-.32,3.5-.42.15-.11.95-1.8,1.35-2.28,2.58-3.1,7.87-3.59,11.05-1.16,1.04.8,1.5,1.97,2.37,2.88,1.01-.07,1.94-.64,2.94-.77,4.16-.54,7.79,2.19,8.54,6.29,7.26.03,8.36,11.74,1.16,13.15.16,1.54-.41,3.68-2.05,4.2-1.11.35-2.78-.31-3.47.6-.99,1.31.84,1.27,1.43,1.99.71.86.78,2.34-.15,3.08-1.23.98-2.23.08-3.5-.01-3.15-.24-6.55.14-8.88,2.46-.89.88-1.08,2.58-2.31,2.95-.62.18-1.84-.24-2.77-.18-2.61.18-5.9,1.77-6.48,4.57-.2.97.22,2.17-.5,2.98-.56.64-2.8.87-3.9,1.62-.94.64-2.79,2.22-3.66,3.03-2.62,2.45-4.29,5.74-2.13,9.12.53.82,1.43,1.19,1.43,2.37,0,1-1.3,3.36-1.46,4.67-.25,2.02,1.18,3.33,2.95,3.99s2.78,0,4.46.19c1.81.21,1.5,2.18,1.95,3.57.94,2.92,3.45,4.74,6.56,3.8.92-.28,1.61-1.14,2.75-.92,1.44.27,1.98,2.82,3.49,3.52,1.23.57,2.57-.76,3.86.5.97.94.45,3.33,2.44,3.95,3.47,1.09,4.07-2.73,6.38-1.45,2.08,1.15,3.18,2.92,6.01,3.3,3.75.5,4.06-.83,6.7-2.26,2.24-1.22,3.62,1.41,5.93,1s2.08-1.22,3.19-2.64c1.68-2.15,2.83-.35,4.79-.14,1.82.19,4-.16,5.29-1.55.6-.65,1.06-2.31,1.84-2.66,1.46-.67,3.3.94,5.51-.6,1.48-1.03,1.27-2.89,2.24-4.22,1.71-.68,3.8.31,5.31-1.01,1.61-1.41.7-3.71,1.9-4.79,1.39-1.25,3.96.24,5.05-1.65.59-1.02-.6-2.66.62-4.01.46-.51,1.3-.77,1.76-1.44,1.76-2.58-.87-4.86-.24-6.93.19-.61,1.67-1.57,2.11-2.25,1.06-1.6.91-4.04.3-5.8-.3-.86-.97-1.66-1.17-2.6-.52-2.42.4-2.16,1.61-3.66,2.41-2.98,3.36-5.68,1.89-9.44-.46-1.17-2.43-3.57-2.47-4.24-.07-1.21,1.64-2.79,1.46-5.21-.17-2.21-2.09-4.01-2.05-5.52.03-1.39,1.45-2.15,2.71-1.83,2.23.57,3.55,6.49,3.42,8.53-.05.89-.87,3.44-.82,3.72.08.45,1.49,2.4,1.82,3.4,1.66,4.97.35,10.1-3.26,13.79,1.55,2.95,2.18,6.26.94,9.45-.34.87-2.02,2.99-2.06,3.34-.04.42.39,1.23.44,1.78.16,1.92-.08,3.61-1.1,5.26,1.24,2.14,3.51,4.45,6.17,2.96,1.58-.88,1.37-2.57,4.05-1.94,1.03.24,1.63,1.53,3.22.49s.65-4.54,3.59-4.86c1.01-.11,1.65.75,2.85-.34,2.28-2.07-.82-7.55.5-8.95ZM85.49,62.48c0-1.76-1.43-3.19-3.19-3.19s-3.19,1.43-3.19,3.19,1.43,3.19,3.19,3.19,3.19-1.43,3.19-3.19ZM99.99,213.38h18.02c-.53-2.24-.91-4.51-.35-6.8-2.15-2.07-3.52-4.08-3.07-7.23.12-.87,1.07-2.58,1.03-2.93-.08-.73-1.21-2.06-1.37-3.27-.33-2.49,1.58-4.93.24-6.92-.67-.99-1.17.03-1.93.33-2.23.89-4.47,1.24-6.88.92-1.76-.23-3.24-1.08-3.06-3.01.26-2.75,3.66-1.01,5.07-1.01s4.54-1.21,5.65-2.23c.9-.83,1.49-2.48,3.07-2.46,1.97.02,2.33.63,4.59-.34,1.58-.68,2.19-1.89,3.3-2.51,2.26-1.27,4.24,1.81,2,4.03s-5.58,3.39-8.58,3.2c1.2,1.98,1.75,3.87,1.43,6.23-.18,1.33-.88,2.07-.5,3.74.23,1.01,1.89,2.14,1.98,3.27.11,1.46-2.19,2.39-1.74,4.92.35,1.97,3.02,2.1,3.36,3.93.23,1.23-.77,2.72-.76,3.93,0,.47.29,1.98.43,2.48,1.2,4.33,6.34,5.69,10.33,5.51-.03-2.02-3.03-4.32-.4-5.77.9-.5,1.28-.42,2.13.12,1.91,1.22,2.9,4.45,2.05,6.52,1.26-.04,5.42.89,6.12-.19.9-1.38-.91-3.17-.91-4.61,0-.62.46-1.65,1.08-1.84,2.74-.83,4.65,3.87,4.16,6.05,4.52-.76,4.13-4.99,1.74-7.99-.53-.67-2.27-1.94-2.33-2.63-.06-.63.48-1.37.57-2.05.15-1.07-.18-2.42.08-3.4.4-1.46,2.37-1.98,2.56-4.42s-1.67-3.7-1.76-4.96c-.07-1.03.91-1.58,1.31-2.45,1.68-3.68-1.46-5.67-1.34-8,.06-1.18,2.05-2.35,2.77-3.36,1.69-2.37,1.63-4.97.68-7.62-.44-1.22-1.61-2.51-1.39-3.84.12-.73,1.97-2.15,2.57-2.97,1.53-2.07,1.77-4.05,1.48-6.61-.13-1.14-1.12-3.01-1.11-3.81.01-.99,2.1-3.15,2.46-4.49.44-1.64.12-4-.59-5.54-.47-1.02-1.58-1.92-1.62-3.06-.04-1.04,1.19-2.48,1.56-3.69.82-2.66.25-5.07-1.19-7.41-.44-.71-1.87-2.05-2.05-2.62-.33-1.08.71-2.5.99-3.56,1-3.76-.6-6.1-2.2-9.32-.75-.11-.45.07-.6.41-.9,2.08-1.55,3.44-3.89,4.25-.83.29-2.51.35-3.06.72-.34.22-1.11,2-1.74,2.62-1.15,1.15-3.51,2.36-5.14,2.45-.62.03-1.06-.28-1.44-.27-.44,0-1.66,1.82-2.3,2.32-1.97,1.54-4.81,2.17-7.27,2.03-.64-.03-1.35-.44-1.98-.31-.24.05-.28.52-.5.71-2.16,1.8-4.55,2.52-7.37,2.18-.78-.09-2.13-.75-2.65-.74-.42.01-1.24.79-1.78,1.02-3.89,1.71-7.38,1.44-11.17-.39-.59-.29-1.69-1.3-2.16-1.32-.54-.01-1.95,1.01-2.93,1.14-3.63.48-6.98-1.3-8.01-4.88-2.47.2-4.21-.72-5.68-2.62-5.47,1.57-10.52-1.62-12.06-6.96-3.47-.13-5.69-1.28-7.95-3.82-1.06-1.18-.95-2.65-2.97-1.81-1.64.68-3.31,2.81-3.55,4.59-.19,1.45.36,4.4-.34,5.47-.39.6-2.36,1.32-3.17,2.06-1.76,1.6-2.43,4.09-2.32,6.4.02.5.3.97.31,1.45.02,1.67-1.74,1.94-2.78,2.76-3.55,2.76-3.3,6.96-3.49,11.04-.82,1.1-2.15,1.5-3.19,2.33-2.8,2.22-4.43,5.88-4.46,9.44-.01,1.36.82,3.82.31,5.01-.62,1.44-3.98,2.03-5.3,3.42-1.49,1.55-1.42,3.02-1.81,4.87-.48,2.28-2.42,1.74-3.86,3.12-1.06,1.02-1.7,2.75-1.6,4.21.07,1.03.94,2.69.83,3.43-.24,1.59-2.64,2.26-3.57,3.71s-.8,3.56-.25,5.17c.41,1.17,1.73,2.13,1.56,3.39-.14,1.02-2.4,1.93-2.63,4.07-.35,3.22.84,2.82,2.63,4.36,2.55,2.18-.3,3.92.66,6.61s3.62,1.03,5.13,2.13c1.31.95.53,3.07,2.54,4.14,1.66.88,4.99.75,6.91.65,1.65-.09,5.01-.99,6.35-.26.61.33,1.06,1.13,1.65,1.54,3.44,2.42,17.02,2.01,20.91.3,3.12-1.37,1.64-1.5,1.07-3.39-.2-.66-.09-1.5-.34-1.99-.39-.78-2.2-1.32-2.91-3.48-.46-1.39-.17-3.26-.47-4.18-.14-.44-2.52-1.78-3.02-3.66-.43-1.59.36-4.87.01-5.53-.11-.21-1.7-2.04-1.91-2.16-.97-.58-2.49-.34-3.34-1.02-.64-.52-1.18-2.75-2.04-3.77-.97-1.14-2.81-2.22-4.2-2.78-1.84-.74-5.87-.91-4.5-3.93.89-1.97,3.98-.79,5.45-.22,3.8,1.46,5.73,2.99,7.93,6.33.22.34-.08.75.71.58.53-2.14-1.08-2.53-1.8-4.16-1.11-2.52-.63-3.7-.51-6.14.09-1.92-.4-3.61-.25-5.49.95-1.62,3.18-1.27,3.87.38,1.39,3.35-1.08,7.35,1.17,10.17.6.75,1.9,1.07,2.13,2.25.17.87-.78,2.84-.78,4,0,.89.47,2.29.99,3.03s1.73,1.39,1.87,2.2c.32,1.79-1.4,3.03-.74,5.1.49,1.55,2.87,1.5,3.43,2.67.77,1.61-1.08,4.04.65,5.75.65.64,1.82.86,2.25,1.82s.04,1.91.35,2.85c.34,1.03,1.91,1.69,2.15,2.81.17.79-.23,1.46-.26,2.25-.14,2.92,1.89,5.39,4.93,4.19-.23-1.96.85-6.41,3.51-4.46,1.8,1.32.15,3.48,1.04,4.77,1.37,1.99,7.31,2.05,7.69-.13.3-1.7-1.26-3.48-.13-4.78,1.6-1.85,3.82.33,4.14,2.24.12.72-.18,2.49.54,2.68,2.97-.44,3.77-2.77,3.18-5.52-.63-2.93-4-4.56-3-8.2.33-1.19,2.21-2.07,2.22-3.84.01-2.23-1.93-2.82-2.23-4.13-.52-2.28,1.64-3.05,1.4-5.76-.17-1.94-2-2.85-2.07-4.06-.07-1.29,1.06-2.18,1.2-3.48.24-2.29-2.3-7.34,2.17-6.55,1.7.3,2.03,5.37,1.86,6.8-.09.74-.74,2-.74,2.35,0,.42,1.27,2.24,1.5,3.05.59,2.01.44,3.22-.07,5.17-.13.51-.66,1.22-.61,1.62.05.47.68.98.88,1.44,1.36,3.23,1.16,6.27-1.45,8.77.99,1.6,2.33,3.13,2.56,5.09ZM163.28,213.61c1.15-1.19.13-3.64-.81-4.72-1.88-2.19-4.62-2.05-6.08-3.51-1.58-1.59.09-2.47.43-3.6.2-.64.04-1.26.19-1.84.32-1.22,2.42-2.21,2.21-4.06-.35-3.09-3.76-3.1-3.41-5.86.19-1.48,1.1-2.66.34-4.45-.33-.78-3.18-3.27-3.85-2.69.85,2.02,1.15,4.55.74,6.7-.13.66-.93,2.08-.93,2.46,0,.33.56,1.05.71,1.52.78,2.46,1.02,4.27-.17,6.67-.46.93-1.74,1.99-1.96,2.69-.98,3.1,1.56,4.2,2.63,6.7.68,1.6.81,3.22,1.03,4.93,2.07-.18,7.46.6,8.93-.93Z"/>
  <path d="M57.7,240.99c1.53.18,4.39,1.27,5.65,2.2,6.47,4.77,5.47,15.4-2.01,18.45v.42s6.97,10.9,6.97,10.9h-8.87l-6.66-9.9c-.74-.6-2.66-.12-3.65-.27v9.74l-.44.44h-7.27l-.44-.44v-31.54h16.71ZM49.12,256.69h6.54c.08,0,1.3-.43,1.51-.52,2.85-1.29,3.28-5.71.66-7.46-.21-.14-1.49-.74-1.59-.74h-7.12v8.72Z"/>
  <polygon points="120.62 240.99 120.62 253.2 131.96 253.2 131.96 240.99 140.1 240.99 139.81 272.97 131.96 272.97 131.96 260.18 120.62 260.18 120.62 272.53 120.19 272.97 112.78 272.97 112.78 240.99 120.62 240.99"/>
  <path d="M194.16,240.99v6.98h-15.84l-.44.44v5.09h14.1c.06,0,.15-.21.29-.24.09,0,.44.35.44.39v6.54h-14.82v5.81h16.57v6.98h-24.12v-31.97h23.83Z"/>
  <path d="M33.72,272.97h-8.43l-2.36-6.07-12.49.14-2.01,5.93H0l13.5-31.99c1.31.26,6.61-.4,7.29.3l12.93,31.69ZM20.64,260.47c-1.28-2.83-2.08-6.22-3.34-9.01-.15-.34-.3-.8-.73-.87l-3.78,9.88h7.85Z"/>
  <path d="M98.83,251.46c-.15-.89-1.46-1.82-2.23-2.28-5.54-3.31-12.68-.33-13.44,6.23-1.16,10.03,9.36,14.49,15.96,7.22.68-.4,4.49,4.24,5.52,4.67-2.18,2.41-4.69,4.58-7.91,5.46-13.55,3.72-25.57-7.86-20.88-21.46,4.12-11.95,20.08-14.53,28.49-5.51l-5.51,5.67Z"/>
  <rect x="151.14" y="240.99" width="7.85" height="31.97"/>
  <path d="M161.32,283.14l3.45.04,3.97,7.52c.53.07.56-.39.74-.72,1.16-2.23,2.27-4.49,3.47-6.7l3.79-.14v13.81c-.84.85-2.37.28-3.49.44v-7.27c-1.58,1.24-2.01,3.76-3.23,5.34-.45.59-1.06.67-1.72.33-.95-.5-2.5-4.57-3.2-5.67h-.43c-.41.04.14.37.14.43v6.83h-3.49v-14.24Z"/>
  <path d="M24.27,283.14c1.68.2,4.19,1.42,4.66,3.19.67,2.52,0,4.98-2.5,5.98l3.21,5.07-4.07-.14c-1.59-1.46-2-4.8-4.65-4.22v4.36h-3.49v-14.24c2.17.19,4.72-.26,6.83,0ZM20.93,286.34c.13.77-.3,3.27.27,3.65.67.45,3.81-.02,4.24-.74.86-3.28-2.2-2.99-4.51-2.92Z"/>
  <path d="M86.04,283.14v3.2h-6.83c-.67.53-.67,1.79,0,2.33h6.25v3.2h-6.69v2.33h7.56v3.2h-11.05c.38-4.27-.8-9.04-.31-13.24.05-.43.03-.74.45-1h10.61Z"/>
  <path d="M134.29,283.14v3.2h-6.83c-.67.53-.67,1.79,0,2.33h6.25v3.2h-6.25c-.72.54-.38,1.51-.44,2.33h7.56v3.2h-10.9c-1.05-1.32-.17-3.54-.13-5.07.08-3.05-.09-6.12-.01-9.17h10.75Z"/>
  <path d="M149.67,283.17l5.55,14.21-3.74-.03-.95-2.54c-.12-.08-.25-.04-.38-.06-.74-.09-4.68-.11-5.2.06-.76.24-.73,1.9-1.34,2.44l-3.5.14,5.85-14.2h3.71ZM147.94,287.79c-.65-.1-.46,0-.64.37-.24.47-1.33,3.49-1.1,3.7h2.91s-1.16-4.07-1.16-4.07Z"/>
  <path d="M44.14,283.18l5.85,14.2-3.49-.14-1.2-2.43-5.59-.06-1.1,2.59-3.74.04,5.85-14.21h3.41ZM42.72,287.79c-.73-.1-.45.03-.6.41-.19.49-1.32,3.48-1.14,3.66h3.2s-1.46-4.07-1.46-4.07Z"/>
  <path d="M62.14,282.91c2.18-.15,4.82.99,6.45,2.41l-2.46,2.43c-3.94-4.14-9.43.52-6.21,5.08,1.52,2.16,4.75,1.61,6.21-.39l2.45,2.21c.22.98-3.32,2.59-4.22,2.7-11.49,1.51-11.62-13.79-2.22-14.45Z"/>
  <path d="M116.85,283.14v3.2h-4.36v10.61c-.92.87-2.58.27-3.78.44v-10.32c0-.07.41-.4.29-.73h-4.65v-3.2h12.5Z"/>
  <path d="M123.17,96.89c1.07,1.96-.15,3.33-1.77,4.35-4,2.51-10.33,1.78-13.14-2.09h-.28c-2.88,3.47-7.64,4.46-11.77,2.76-1.72-.71-5.41-3.39-2.78-5.1,1.76-1.15,3,1.01,4.53,1.61,3.24,1.27,7.94-.85,8.15-4.65.02-.38-.22-2.21-.36-2.41-.11-.15-1.22-.37-1.6-.58-3.57-1.95-8.85-8.55-3.38-11.34,3.08-1.57,12.06-1.84,14.9.11,2.35,1.62,2.28,3.48,1.23,5.85-1.27,2.88-3.72,5.05-6.61,6.18-.19,1.67-.5,3.29.59,4.67,1.85,2.35,4.8,3.26,7.62,2.09,1.66-.69,2.47-2.75,4.67-1.45Z"/>
  <path d="M132.54,72.99c.58,1.02,2.3.48,3.34.58,2.17.2,4.83,1.73,6.09,3.5.35.5.91,2.09,1.1,2.24.34.28,2.67.6,3.63,1.17.89.53,2.4,1.97,2.33,3.07-.06.87-.67,1.96-1.58,2.17-1.98.44-2-1.02-3.37-1.74-1.28-.68-3.01-.29-3.79-.79-.53-.34-1.02-2.87-1.81-3.78-.84-.98-2.78-1.75-4.05-1.78-.91-.02-2.27.58-2.79.46-.75-.17-2.02-1.9-2.73-2.47-2.29-1.81-4.74-1.86-7.56-1.75-1.37.05-3.46,1.12-4.09-.86-1.15-3.6,5.53-3.76,7.73-3.21-6.5-7.89,4.13-18.39,12.18-12.04,5.87,4.63,2.68,14.43-4.63,15.24ZM133.2,61.55c0-1.53-1.24-2.78-2.78-2.78s-2.78,1.24-2.78,2.78,1.24,2.78,2.78,2.78,2.78-1.24,2.78-2.78Z"/>
</svg>